<mxfile host="Electron" modified="2024-03-15T04:17:41.250Z" agent="Mozilla/5.0 (Windows NT 10.0; Win64; x64) AppleWebKit/537.36 (KHTML, like Gecko) draw.io/21.6.1 Chrome/112.0.5615.204 Electron/24.6.1 Safari/537.36" etag="9Uftf4Uk6FRNooJ-g559" version="21.6.1" type="device">
  <diagram name="Page-1" id="OXUcoY2ROjcD5L2N_OjO">
    <mxGraphModel dx="1182" dy="690" grid="1" gridSize="10" guides="1" tooltips="1" connect="1" arrows="1" fold="1" page="1" pageScale="1" pageWidth="827" pageHeight="1169" math="0" shadow="0">
      <root>
        <mxCell id="0" />
        <mxCell id="1" parent="0" />
        <mxCell id="1KBWaLSiAqOpqnrJd6pk-3" value="" style="edgeStyle=orthogonalEdgeStyle;rounded=0;orthogonalLoop=1;jettySize=auto;html=1;entryX=0.5;entryY=0;entryDx=0;entryDy=0;" edge="1" parent="1" source="1KBWaLSiAqOpqnrJd6pk-1" target="1KBWaLSiAqOpqnrJd6pk-4">
          <mxGeometry relative="1" as="geometry">
            <mxPoint x="220" y="230" as="targetPoint" />
          </mxGeometry>
        </mxCell>
        <mxCell id="1KBWaLSiAqOpqnrJd6pk-1" value="Initialize the Game" style="rounded=0;whiteSpace=wrap;html=1;" vertex="1" parent="1">
          <mxGeometry x="160" y="120" width="120" height="40" as="geometry" />
        </mxCell>
        <mxCell id="1KBWaLSiAqOpqnrJd6pk-8" value="" style="edgeStyle=orthogonalEdgeStyle;rounded=0;orthogonalLoop=1;jettySize=auto;html=1;" edge="1" parent="1" source="1KBWaLSiAqOpqnrJd6pk-4" target="1KBWaLSiAqOpqnrJd6pk-5">
          <mxGeometry relative="1" as="geometry" />
        </mxCell>
        <mxCell id="1KBWaLSiAqOpqnrJd6pk-4" value="First Player" style="rounded=0;whiteSpace=wrap;html=1;" vertex="1" parent="1">
          <mxGeometry x="160" y="200" width="120" height="40" as="geometry" />
        </mxCell>
        <mxCell id="1KBWaLSiAqOpqnrJd6pk-7" value="" style="edgeStyle=orthogonalEdgeStyle;rounded=0;orthogonalLoop=1;jettySize=auto;html=1;" edge="1" parent="1" source="1KBWaLSiAqOpqnrJd6pk-5" target="1KBWaLSiAqOpqnrJd6pk-6">
          <mxGeometry relative="1" as="geometry" />
        </mxCell>
        <mxCell id="1KBWaLSiAqOpqnrJd6pk-17" value="No" style="edgeStyle=orthogonalEdgeStyle;rounded=0;orthogonalLoop=1;jettySize=auto;html=1;" edge="1" parent="1" source="1KBWaLSiAqOpqnrJd6pk-5" target="1KBWaLSiAqOpqnrJd6pk-6">
          <mxGeometry relative="1" as="geometry" />
        </mxCell>
        <mxCell id="1KBWaLSiAqOpqnrJd6pk-21" style="edgeStyle=orthogonalEdgeStyle;rounded=0;orthogonalLoop=1;jettySize=auto;html=1;" edge="1" parent="1" source="1KBWaLSiAqOpqnrJd6pk-5" target="1KBWaLSiAqOpqnrJd6pk-18">
          <mxGeometry relative="1" as="geometry" />
        </mxCell>
        <mxCell id="1KBWaLSiAqOpqnrJd6pk-5" value="Does First&lt;br&gt;&amp;nbsp;Player Win?" style="rhombus;whiteSpace=wrap;html=1;" vertex="1" parent="1">
          <mxGeometry x="160" y="280" width="120" height="80" as="geometry" />
        </mxCell>
        <mxCell id="1KBWaLSiAqOpqnrJd6pk-11" value="No" style="edgeStyle=orthogonalEdgeStyle;rounded=0;orthogonalLoop=1;jettySize=auto;html=1;" edge="1" parent="1" source="1KBWaLSiAqOpqnrJd6pk-6" target="1KBWaLSiAqOpqnrJd6pk-10">
          <mxGeometry relative="1" as="geometry" />
        </mxCell>
        <mxCell id="1KBWaLSiAqOpqnrJd6pk-23" value="Yes" style="edgeStyle=orthogonalEdgeStyle;rounded=0;orthogonalLoop=1;jettySize=auto;html=1;entryX=0;entryY=0.5;entryDx=0;entryDy=0;" edge="1" parent="1" source="1KBWaLSiAqOpqnrJd6pk-6" target="1KBWaLSiAqOpqnrJd6pk-20">
          <mxGeometry x="-0.6667" relative="1" as="geometry">
            <Array as="points">
              <mxPoint x="320" y="440" />
              <mxPoint x="320" y="470" />
            </Array>
            <mxPoint as="offset" />
          </mxGeometry>
        </mxCell>
        <mxCell id="1KBWaLSiAqOpqnrJd6pk-6" value="Board Full?" style="rhombus;whiteSpace=wrap;html=1;" vertex="1" parent="1">
          <mxGeometry x="160" y="400" width="120" height="80" as="geometry" />
        </mxCell>
        <mxCell id="1KBWaLSiAqOpqnrJd6pk-14" value="No" style="edgeStyle=orthogonalEdgeStyle;rounded=0;orthogonalLoop=1;jettySize=auto;html=1;entryX=0.5;entryY=0;entryDx=0;entryDy=0;" edge="1" parent="1" source="1KBWaLSiAqOpqnrJd6pk-10" target="1KBWaLSiAqOpqnrJd6pk-12">
          <mxGeometry relative="1" as="geometry" />
        </mxCell>
        <mxCell id="1KBWaLSiAqOpqnrJd6pk-10" value="Second Player" style="whiteSpace=wrap;html=1;" vertex="1" parent="1">
          <mxGeometry x="160" y="520" width="120" height="40" as="geometry" />
        </mxCell>
        <mxCell id="1KBWaLSiAqOpqnrJd6pk-15" value="No" style="edgeStyle=orthogonalEdgeStyle;rounded=0;orthogonalLoop=1;jettySize=auto;html=1;entryX=0.5;entryY=0;entryDx=0;entryDy=0;" edge="1" parent="1" source="1KBWaLSiAqOpqnrJd6pk-12" target="1KBWaLSiAqOpqnrJd6pk-13">
          <mxGeometry relative="1" as="geometry" />
        </mxCell>
        <mxCell id="1KBWaLSiAqOpqnrJd6pk-22" value="Yes" style="edgeStyle=orthogonalEdgeStyle;rounded=0;orthogonalLoop=1;jettySize=auto;html=1;entryX=0;entryY=0.5;entryDx=0;entryDy=0;" edge="1" parent="1" source="1KBWaLSiAqOpqnrJd6pk-12" target="1KBWaLSiAqOpqnrJd6pk-19">
          <mxGeometry x="-0.4545" relative="1" as="geometry">
            <mxPoint as="offset" />
          </mxGeometry>
        </mxCell>
        <mxCell id="1KBWaLSiAqOpqnrJd6pk-12" value="Does First&lt;br&gt;&amp;nbsp;Player Win?" style="rhombus;whiteSpace=wrap;html=1;" vertex="1" parent="1">
          <mxGeometry x="160" y="600" width="120" height="80" as="geometry" />
        </mxCell>
        <mxCell id="1KBWaLSiAqOpqnrJd6pk-16" value="No" style="edgeStyle=orthogonalEdgeStyle;rounded=0;orthogonalLoop=1;jettySize=auto;html=1;entryX=0;entryY=0.5;entryDx=0;entryDy=0;" edge="1" parent="1" source="1KBWaLSiAqOpqnrJd6pk-13" target="1KBWaLSiAqOpqnrJd6pk-4">
          <mxGeometry relative="1" as="geometry">
            <Array as="points">
              <mxPoint x="70" y="759.9999999999998" />
              <mxPoint x="70" y="220" />
            </Array>
          </mxGeometry>
        </mxCell>
        <mxCell id="1KBWaLSiAqOpqnrJd6pk-24" value="Yes" style="edgeStyle=orthogonalEdgeStyle;rounded=0;orthogonalLoop=1;jettySize=auto;html=1;" edge="1" parent="1" source="1KBWaLSiAqOpqnrJd6pk-13">
          <mxGeometry x="-0.9024" relative="1" as="geometry">
            <mxPoint x="400" y="470" as="targetPoint" />
            <Array as="points">
              <mxPoint x="320" y="760" />
              <mxPoint x="320" y="470" />
            </Array>
            <mxPoint as="offset" />
          </mxGeometry>
        </mxCell>
        <mxCell id="1KBWaLSiAqOpqnrJd6pk-13" value="Board Full?" style="rhombus;whiteSpace=wrap;html=1;" vertex="1" parent="1">
          <mxGeometry x="160" y="720" width="120" height="80" as="geometry" />
        </mxCell>
        <mxCell id="1KBWaLSiAqOpqnrJd6pk-28" value="" style="edgeStyle=orthogonalEdgeStyle;rounded=0;orthogonalLoop=1;jettySize=auto;html=1;entryX=0;entryY=0.5;entryDx=0;entryDy=0;" edge="1" parent="1" source="1KBWaLSiAqOpqnrJd6pk-18" target="1KBWaLSiAqOpqnrJd6pk-27">
          <mxGeometry relative="1" as="geometry" />
        </mxCell>
        <mxCell id="1KBWaLSiAqOpqnrJd6pk-18" value="Handle First&lt;br&gt;Player Win" style="rounded=0;whiteSpace=wrap;html=1;" vertex="1" parent="1">
          <mxGeometry x="370" y="290" width="120" height="60" as="geometry" />
        </mxCell>
        <mxCell id="1KBWaLSiAqOpqnrJd6pk-30" style="edgeStyle=orthogonalEdgeStyle;rounded=0;orthogonalLoop=1;jettySize=auto;html=1;entryX=0;entryY=0.5;entryDx=0;entryDy=0;" edge="1" parent="1" source="1KBWaLSiAqOpqnrJd6pk-19" target="1KBWaLSiAqOpqnrJd6pk-27">
          <mxGeometry relative="1" as="geometry" />
        </mxCell>
        <mxCell id="1KBWaLSiAqOpqnrJd6pk-19" value="Handle Second Player Win" style="rounded=0;whiteSpace=wrap;html=1;" vertex="1" parent="1">
          <mxGeometry x="370" y="610" width="120" height="60" as="geometry" />
        </mxCell>
        <mxCell id="1KBWaLSiAqOpqnrJd6pk-29" style="edgeStyle=orthogonalEdgeStyle;rounded=0;orthogonalLoop=1;jettySize=auto;html=1;entryX=0;entryY=0.5;entryDx=0;entryDy=0;" edge="1" parent="1" source="1KBWaLSiAqOpqnrJd6pk-20" target="1KBWaLSiAqOpqnrJd6pk-27">
          <mxGeometry relative="1" as="geometry" />
        </mxCell>
        <mxCell id="1KBWaLSiAqOpqnrJd6pk-20" value="Handle Draw Game" style="rounded=0;whiteSpace=wrap;html=1;" vertex="1" parent="1">
          <mxGeometry x="370" y="440" width="120" height="60" as="geometry" />
        </mxCell>
        <mxCell id="1KBWaLSiAqOpqnrJd6pk-33" style="edgeStyle=orthogonalEdgeStyle;rounded=0;orthogonalLoop=1;jettySize=auto;html=1;entryX=0.5;entryY=0;entryDx=0;entryDy=0;" edge="1" parent="1" source="1KBWaLSiAqOpqnrJd6pk-25" target="1KBWaLSiAqOpqnrJd6pk-1">
          <mxGeometry relative="1" as="geometry" />
        </mxCell>
        <mxCell id="1KBWaLSiAqOpqnrJd6pk-25" value="GAME START" style="strokeWidth=2;html=1;shape=mxgraph.flowchart.terminator;whiteSpace=wrap;" vertex="1" parent="1">
          <mxGeometry x="170" y="40" width="100" height="60" as="geometry" />
        </mxCell>
        <mxCell id="1KBWaLSiAqOpqnrJd6pk-26" value="GAME OVER" style="strokeWidth=2;html=1;shape=mxgraph.flowchart.terminator;whiteSpace=wrap;" vertex="1" parent="1">
          <mxGeometry x="690" y="440" width="100" height="60" as="geometry" />
        </mxCell>
        <mxCell id="1KBWaLSiAqOpqnrJd6pk-31" value="Yes" style="edgeStyle=orthogonalEdgeStyle;rounded=0;orthogonalLoop=1;jettySize=auto;html=1;entryX=1;entryY=0.5;entryDx=0;entryDy=0;" edge="1" parent="1" source="1KBWaLSiAqOpqnrJd6pk-27" target="1KBWaLSiAqOpqnrJd6pk-1">
          <mxGeometry x="-0.5484" relative="1" as="geometry">
            <Array as="points">
              <mxPoint x="610" y="140" />
            </Array>
            <mxPoint as="offset" />
          </mxGeometry>
        </mxCell>
        <mxCell id="1KBWaLSiAqOpqnrJd6pk-32" value="No" style="edgeStyle=orthogonalEdgeStyle;rounded=0;orthogonalLoop=1;jettySize=auto;html=1;" edge="1" parent="1" source="1KBWaLSiAqOpqnrJd6pk-27" target="1KBWaLSiAqOpqnrJd6pk-26">
          <mxGeometry relative="1" as="geometry" />
        </mxCell>
        <mxCell id="1KBWaLSiAqOpqnrJd6pk-27" value="Another&lt;br&gt;Round?" style="rhombus;whiteSpace=wrap;html=1;rounded=0;" vertex="1" parent="1">
          <mxGeometry x="570" y="430" width="80" height="80" as="geometry" />
        </mxCell>
      </root>
    </mxGraphModel>
  </diagram>
</mxfile>
